<?xml version="1.0" encoding="UTF-8"?>
<svg id="icons_COLOUR" data-name="icons COLOUR" xmlns="http://www.w3.org/2000/svg" viewBox="0 0 72 72">
  <defs>
    <style>
      .cls-1 {
        fill: #fff;
      }

      .cls-2 {
        fill: #d653d3;
      }
    </style>
  </defs>
  <path class="cls-2" d="m54,0H18C8.06,0,0,8.06,0,18v54h54c9.94,0,18-8.06,18-18V18c0-9.94-8.06-18-18-18Z"/>
  <path class="cls-1" d="m4.98,51.75c8.32.25,15.02,6.95,15.27,15.27,0,.26-.2.48-.46.48H4.96c-.26,0-.46-.21-.46-.46v-14.82c0-.26.22-.47.48-.46"/>
  <g>
    <path class="cls-1" d="m18.16,47.02l-7.53-24.1h3.68l4.39,15.25c.18.56.35,1.17.51,1.82.16.65.31,1.29.47,1.92.16.63.28,1.2.37,1.72h.17c.09-.52.21-1.09.35-1.7.15-.62.3-1.26.46-1.92.16-.66.32-1.3.47-1.91l4.25-15.19h3.71l-7.46,24.1h-3.85Z"/>
    <path class="cls-1" d="m34.97,47.36c-1.13,0-2.21-.1-3.24-.29s-1.97-.47-2.8-.83v-3.34c.83.38,1.77.73,2.8,1.03,1.03.3,2.2.46,3.51.46s2.25-.19,2.84-.57c.58-.38.88-.96.88-1.72,0-.47-.12-.86-.37-1.15-.25-.29-.68-.59-1.3-.88-.62-.29-1.49-.66-2.62-1.11-1.1-.49-2.07-.97-2.9-1.42-.83-.45-1.47-.99-1.92-1.62-.45-.63-.67-1.44-.67-2.43,0-1.12.29-2.06.88-2.8.59-.74,1.41-1.29,2.48-1.65,1.07-.36,2.32-.54,3.76-.54,1.06,0,2.08.1,3.07.3.99.2,1.99.52,3,.94l-1.08,2.77c-.94-.38-1.82-.65-2.62-.81-.8-.16-1.6-.24-2.41-.24-1.22,0-2.11.15-2.68.46-.57.3-.86.79-.86,1.47,0,.47.15.87.44,1.18.29.32.75.61,1.38.89.63.28,1.44.64,2.43,1.06,1.15.45,2.14.89,2.99,1.32.84.43,1.49.96,1.94,1.6.45.64.68,1.51.68,2.62,0,1.17-.29,2.15-.86,2.94-.57.79-1.42,1.38-2.55,1.77-1.13.39-2.52.59-4.18.59Z"/>
    <path class="cls-1" d="m44.32,47.02v-2.33l6.35-.64v-12.25l-5.7-.47v-2.5h9.32v15.22l5.87.64v2.33h-15.83Zm7.93-21.13c-.7,0-1.27-.2-1.7-.59-.44-.39-.66-.97-.66-1.74s.22-1.38.66-1.77c.44-.39,1.02-.59,1.74-.59s1.27.2,1.7.59c.44.39.66.98.66,1.77s-.22,1.34-.66,1.74c-.44.39-1.02.59-1.74.59Z"/>
  </g>
</svg>